<svg width="283" height="48" viewBox="0 0 283 48" fill="none" xmlns="http://www.w3.org/2000/svg">
<path d="M76.6286 13.2783H80.6422V35.9838H76.6286V25.2514H66.996V35.9838H62.9824V13.2783H66.996V23.7005H76.6286V13.2783Z" fill="#182642"/>
<path d="M89.4717 13.2783V35.9838H85.6875V13.2783H89.4717Z" fill="#182642"/>
<path d="M98.3018 34.1227H109.655V35.9838H94.5176V13.2783H98.3018V34.1227Z" fill="#182642"/>
<path d="M195.521 33.802V35.3529H181.015V12.6475H195.521V14.1984H185.019V22.5734H193.735V24.4345H185.019V33.802H195.521Z" fill="#182642"/>
<path d="M212.879 23.9215C214.198 24.801 215.141 25.7748 215.674 26.8114C216.114 27.6595 216.334 28.539 216.334 29.4813C216.334 31.4288 215.549 33.0308 214.01 34.2559C212.596 35.3867 210.837 35.9835 208.827 35.9835C208.168 35.9835 207.571 35.9521 207.005 35.8579C206.252 35.7636 205.435 35.5437 204.587 35.1354C203.707 34.7585 202.859 33.9418 202.011 32.7795C201.383 31.9 201.006 30.7692 200.818 29.3871H202.388C202.482 30.141 202.639 30.7378 202.891 31.1776C203.393 32.1199 204.179 32.8424 205.246 33.4078C206.22 33.9103 207.32 34.1616 208.482 34.1616C209.644 34.1616 210.649 33.8789 211.466 33.2821C212.345 32.6539 212.785 31.8372 212.785 30.7692C212.785 29.6384 212.188 28.6018 210.994 27.7223C210.209 27.1569 208.921 26.3716 207.162 25.4293C205.341 24.4869 204.021 23.6702 203.205 23.042C201.446 21.6913 200.566 20.0579 200.566 18.1732C200.566 16.3514 201.289 14.8436 202.702 13.6814C204.053 12.582 205.686 12.0166 207.539 12.0166H207.571C209.707 12.1422 211.214 12.5506 212.094 13.2416C212.973 13.9327 213.601 14.718 213.978 15.5661C214.292 16.2571 214.512 16.9482 214.638 17.6707H212.942C212.502 16.1943 211.843 15.1577 210.963 14.6866C209.864 14.0269 208.702 13.7442 207.571 13.8071C206.597 13.8385 205.718 14.1212 204.995 14.718C204.179 15.3462 203.802 16.1001 203.802 17.011C203.802 17.6392 204.021 18.2046 204.461 18.7386C205.152 19.5239 206.786 20.6233 209.361 21.974C211.214 22.9478 212.345 23.576 212.879 23.9215Z" fill="#182642"/>
<path d="M225.164 12.6475V35.3529H221.38V12.6475H225.164Z" fill="#182642"/>
<path d="M246.957 32.3664V24.5033H250.362V31.2027C250.269 31.36 250.021 31.8318 249.526 32.3979C248.319 33.8447 245.718 35.9835 241.137 35.9835C234.234 35.9835 230.21 30.6366 230.21 24.0001C230.21 17.395 234.234 12.0166 241.137 12.0166C247.669 12.0166 250.145 16.3885 250.393 16.8289L249.526 18.2442C242.437 9.59475 234.544 15.4764 234.544 24.0001C234.544 31.5172 240.673 36.9585 246.957 32.3664Z" fill="#182642"/>
<path d="M276.152 12.1583V11.8458H278.333V12.1583H277.419V14.7549H277.066V12.1583H276.152ZM279.449 11.8458H279.869L280.858 14.2606H280.892L281.88 11.8458H282.301V14.7549H281.971V12.5447H281.943L281.034 14.7549H280.716L279.806 12.5447H279.778V14.7549H279.449V11.8458Z" fill="#182642"/>
<path d="M270.606 12.6475H272.468V35.3529L257.3 20.1849V35.3529H255.438V12.6475L270.606 27.7845V12.6475Z" fill="#182642"/>
<ellipse cx="24.0761" cy="24" rx="23.4755" ry="23.4756" fill="url(#paint0_linear_10_2868)"/>
<defs>
<linearGradient id="paint0_linear_10_2868" x1="24.0761" y1="47.4755" x2="2.95135" y2="47.4755" gradientUnits="userSpaceOnUse">
<stop stop-color="#273F67"/>
<stop offset="1" stop-color="#182642"/>
</linearGradient>
</defs>
</svg>
