<svg width="27" height="27" viewBox="0 0 27 27" fill="none" xmlns="http://www.w3.org/2000/svg">
<path d="M17.2675 8.38738L4.55701 21.1033C4.18803 21.4723 4.18803 22.0726 4.55701 22.4416C4.73874 22.6233 4.98106 22.7169 5.22337 22.7169C5.46568 22.7169 5.708 22.6233 5.88973 22.4416L18.6002 9.73112C18.9692 9.36214 18.9692 8.76186 18.6002 8.39288C18.2367 8.0184 17.6364 8.0184 17.2675 8.38738Z" fill="#543925"/>
<path d="M23.7439 10.5627C23.9862 10.5627 24.2285 10.4691 24.4103 10.2873L25.7981 8.89952C27.4006 7.29695 27.4006 4.69208 25.7981 3.09501L23.9036 1.20055C23.1271 0.424049 22.0973 0 21.0014 0C19.9054 0 18.8756 0.429556 18.0991 1.20055L16.7113 2.58835C16.3423 2.95733 16.3423 3.55761 16.7113 3.92659L23.0775 10.2928C23.2593 10.4691 23.5016 10.5627 23.7439 10.5627ZM19.4373 2.52777C19.8559 2.10923 20.4121 1.87793 21.0069 1.87793C21.5961 1.87793 22.1579 2.10923 22.5764 2.52777L24.4709 4.42223C25.3355 5.28685 25.3355 6.69117 24.4709 7.55579L23.7439 8.28273L18.7104 3.24921L19.4373 2.52777Z" fill="#543925"/>
<path d="M8.96828 25.7238L22.3781 12.3139C22.7471 11.945 22.7471 11.3447 22.3781 10.9757C22.0092 10.6067 21.4089 10.6067 21.0399 10.9757L7.86134 24.1653L2.04581 24.9473L2.82782 19.1318L15.4171 6.54246C15.7861 6.17348 15.7861 5.5732 15.4171 5.20422C15.0481 4.83525 14.4479 4.83525 14.0789 5.20422L1.26931 18.0248C1.12061 18.1735 1.02699 18.3608 0.999456 18.5645L0.00817267 25.9221C-0.0303772 26.2139 0.0687511 26.5058 0.278022 26.7151C0.45425 26.8913 0.696564 26.9904 0.944385 26.9904C0.988442 26.9904 1.02699 26.9849 1.07105 26.9794L8.42858 25.9881C8.63234 25.9661 8.82509 25.8725 8.96828 25.7238Z" fill="#543925"/>
</svg>
