<svg width="237" height="49" viewBox="0 0 237 49" fill="none" xmlns="http://www.w3.org/2000/svg">
<path d="M31.6436 48.2491C18.4415 48.2491 7.70508 37.4275 7.70508 24.1245C7.70508 10.8216 18.4457 0 31.6436 0C44.8458 0 55.5822 10.8216 55.5822 24.1245C55.5822 37.4275 44.8416 48.2491 31.6436 48.2491ZM31.6436 1.75199C19.437 1.75199 9.50709 11.7872 9.50709 24.1245C9.50709 36.4618 19.437 46.4971 31.6436 46.4971C43.8502 46.4971 53.7802 36.4618 53.7802 24.1245C53.7802 11.7872 43.846 1.75199 31.6436 1.75199Z" fill="#543925"/>
<path d="M23.5356 39.4046C22.7291 39.4046 21.931 39.1234 21.1707 38.5652L21.1413 38.5449C21.1413 38.5449 21.1035 38.5123 21.0363 38.4552C19.0327 36.6584 18.747 33.5986 20.3684 31.3413C20.9019 30.5957 21.595 29.9357 22.2629 29.296C22.5527 29.0189 22.8257 28.7582 23.0819 28.4933L26.9758 24.4923V12.1753L1.94511 36.7236L1 35.815L28.3073 9.03806V23.1273L42.0681 8.98509V23.3107L42.0723 23.3066L59.0381 5.98633L60 6.87455L42.0681 25.1808V34.0997C42.0681 36.0799 40.9718 38.5245 38.5691 39.2171C37.0612 39.6531 35.3348 39.2294 34.0662 38.1211C32.9069 37.1025 32.3944 35.7376 32.6591 34.3686C33.0749 32.2377 34.7929 30.5957 36.3093 29.1452C36.6537 28.8152 36.9813 28.5015 37.2838 28.1918L40.7324 24.6675V12.2283L28.3032 25.0056V33.8634C28.3032 35.6643 27.379 37.5059 25.9509 38.549C25.1696 39.1194 24.3505 39.4046 23.5356 39.4046ZM21.9898 37.5507C23.0525 38.3249 24.0607 38.3167 25.1528 37.514C26.2449 36.7155 26.9758 35.2487 26.9758 33.8593V26.3706L24.0481 29.3815C23.775 29.6627 23.481 29.9438 23.1954 30.2168C22.5695 30.8157 21.9226 31.435 21.4564 32.0829C20.2088 33.8145 20.4188 36.1491 21.9394 37.514C21.9646 37.5263 21.9814 37.5426 21.9898 37.5507ZM40.7366 26.5376L38.2499 29.076C37.9307 29.4019 37.5988 29.7197 37.2418 30.0579C35.7968 31.4391 34.3014 32.8652 33.9612 34.6009C33.7806 35.5176 34.1418 36.4466 34.9525 37.1555C35.864 37.9541 37.1368 38.276 38.1869 37.9745C39.8587 37.4937 40.7324 35.6561 40.7324 34.0916V26.5376H40.7366Z" fill="#543925" stroke="#543925" stroke-width="0.6"/>
<path d="M80.175 16.5007H82.675V34.0007H80.175V16.5007ZM70.125 34.0007H67.625V16.5007H70.125V34.0007ZM80.4 26.2007H69.875V24.0257H80.4V26.2007ZM87.9131 34.0007V16.5007H90.4131V34.0007H87.9131ZM95.6523 34.0007V16.5007H98.1523V31.8257H107.627V34.0007H95.6523ZM118.079 34.2007C116.745 34.2007 115.504 33.9757 114.354 33.5257C113.22 33.0757 112.237 32.4507 111.404 31.6507C110.57 30.8341 109.92 29.8841 109.454 28.8007C108.987 27.7174 108.754 26.5341 108.754 25.2507C108.754 23.9674 108.987 22.7841 109.454 21.7007C109.92 20.6174 110.57 19.6757 111.404 18.8757C112.237 18.0591 113.22 17.4257 114.354 16.9757C115.487 16.5257 116.729 16.3007 118.079 16.3007C119.412 16.3007 120.637 16.5257 121.754 16.9757C122.887 17.4091 123.87 18.0341 124.704 18.8507C125.554 19.6507 126.204 20.5924 126.654 21.6757C127.12 22.7591 127.354 23.9507 127.354 25.2507C127.354 26.5507 127.12 27.7424 126.654 28.8257C126.204 29.9091 125.554 30.8591 124.704 31.6757C123.87 32.4757 122.887 33.1007 121.754 33.5507C120.637 33.9841 119.412 34.2007 118.079 34.2007ZM118.079 31.9757C119.045 31.9757 119.937 31.8091 120.754 31.4757C121.587 31.1424 122.304 30.6757 122.904 30.0757C123.52 29.4591 123.995 28.7424 124.329 27.9257C124.679 27.1091 124.854 26.2174 124.854 25.2507C124.854 24.2841 124.679 23.3924 124.329 22.5757C123.995 21.7591 123.52 21.0507 122.904 20.4507C122.304 19.8341 121.587 19.3591 120.754 19.0257C119.937 18.6924 119.045 18.5257 118.079 18.5257C117.095 18.5257 116.187 18.6924 115.354 19.0257C114.537 19.3591 113.82 19.8341 113.204 20.4507C112.587 21.0507 112.104 21.7591 111.754 22.5757C111.42 23.3924 111.254 24.2841 111.254 25.2507C111.254 26.2174 111.42 27.1091 111.754 27.9257C112.104 28.7424 112.587 29.4591 113.204 30.0757C113.82 30.6757 114.537 31.1424 115.354 31.4757C116.187 31.8091 117.095 31.9757 118.079 31.9757ZM138.509 34.0007V16.5007H145.434C147.284 16.5007 148.909 16.8757 150.309 17.6257C151.709 18.3757 152.792 19.4091 153.559 20.7257C154.342 22.0424 154.734 23.5507 154.734 25.2507C154.734 26.9507 154.342 28.4591 153.559 29.7757C152.792 31.0924 151.709 32.1257 150.309 32.8757C148.909 33.6257 147.284 34.0007 145.434 34.0007H138.509ZM139.784 32.8507H145.334C146.984 32.8507 148.417 32.5257 149.634 31.8757C150.851 31.2257 151.792 30.3341 152.459 29.2007C153.126 28.0507 153.459 26.7341 153.459 25.2507C153.459 23.7674 153.126 22.4591 152.459 21.3257C151.792 20.1757 150.851 19.2757 149.634 18.6257C148.417 17.9757 146.984 17.6507 145.334 17.6507H139.784V32.8507ZM160.288 24.5507H169.763V25.6757H160.288V24.5507ZM160.438 32.8507H171.238V34.0007H159.163V16.5007H170.863V17.6507H160.438V32.8507ZM180.487 34.1257C179.187 34.1257 177.954 33.9091 176.787 33.4757C175.637 33.0257 174.745 32.4507 174.112 31.7507L174.687 30.8007C175.287 31.4174 176.104 31.9424 177.137 32.3757C178.187 32.7924 179.295 33.0007 180.462 33.0007C181.629 33.0007 182.579 32.8507 183.312 32.5507C184.062 32.2341 184.612 31.8174 184.962 31.3007C185.329 30.7841 185.512 30.2091 185.512 29.5757C185.512 28.8257 185.312 28.2257 184.912 27.7757C184.512 27.3257 183.987 26.9674 183.337 26.7007C182.687 26.4341 181.979 26.2091 181.212 26.0257C180.445 25.8424 179.67 25.6507 178.887 25.4507C178.104 25.2341 177.387 24.9591 176.737 24.6257C176.087 24.2924 175.562 23.8424 175.162 23.2757C174.779 22.6924 174.587 21.9424 174.587 21.0257C174.587 20.1924 174.804 19.4257 175.237 18.7257C175.67 18.0257 176.345 17.4591 177.262 17.0257C178.179 16.5924 179.354 16.3757 180.787 16.3757C181.754 16.3757 182.704 16.5174 183.637 16.8007C184.587 17.0841 185.395 17.4674 186.062 17.9507L185.587 18.9757C184.854 18.4757 184.062 18.1091 183.212 17.8757C182.379 17.6257 181.57 17.5007 180.787 17.5007C179.67 17.5007 178.745 17.6591 178.012 17.9757C177.279 18.2924 176.737 18.7174 176.387 19.2507C176.037 19.7674 175.862 20.3507 175.862 21.0007C175.862 21.7507 176.054 22.3507 176.437 22.8007C176.837 23.2507 177.362 23.6091 178.012 23.8757C178.662 24.1424 179.379 24.3674 180.162 24.5507C180.945 24.7341 181.72 24.9341 182.487 25.1507C183.254 25.3507 183.962 25.6174 184.612 25.9507C185.262 26.2841 185.787 26.7341 186.187 27.3007C186.587 27.8674 186.787 28.6007 186.787 29.5007C186.787 30.3174 186.562 31.0841 186.112 31.8007C185.662 32.5007 184.97 33.0674 184.037 33.5007C183.12 33.9174 181.937 34.1257 180.487 34.1257ZM191.121 34.0007V16.5007H192.396V34.0007H191.121ZM205.969 34.1257C204.653 34.1257 203.436 33.9091 202.319 33.4757C201.203 33.0257 200.228 32.4007 199.394 31.6007C198.578 30.8007 197.944 29.8674 197.494 28.8007C197.044 27.7174 196.819 26.5341 196.819 25.2507C196.819 23.9674 197.044 22.7924 197.494 21.7257C197.944 20.6424 198.586 19.7007 199.419 18.9007C200.253 18.1007 201.219 17.4841 202.319 17.0507C203.436 16.6007 204.661 16.3757 205.994 16.3757C207.261 16.3757 208.436 16.5757 209.519 16.9757C210.603 17.3757 211.528 17.9757 212.294 18.7757L211.494 19.6257C210.728 18.8757 209.886 18.3424 208.969 18.0257C208.069 17.7091 207.086 17.5507 206.019 17.5507C204.886 17.5507 203.836 17.7424 202.869 18.1257C201.903 18.5091 201.061 19.0507 200.344 19.7507C199.628 20.4507 199.069 21.2674 198.669 22.2007C198.286 23.1341 198.094 24.1507 198.094 25.2507C198.094 26.3507 198.286 27.3674 198.669 28.3007C199.069 29.2341 199.628 30.0507 200.344 30.7507C201.061 31.4507 201.903 31.9924 202.869 32.3757C203.836 32.7591 204.886 32.9507 206.019 32.9507C207.053 32.9507 208.028 32.7924 208.944 32.4757C209.878 32.1591 210.728 31.6341 211.494 30.9007L212.219 31.8757C211.436 32.6257 210.494 33.1924 209.394 33.5757C208.311 33.9424 207.169 34.1257 205.969 34.1257ZM210.994 31.7507V25.3257H212.219V31.8757L210.994 31.7507ZM217.83 34.0007V16.5007H218.905L231.38 32.4257H230.805V16.5007H232.08V34.0007H231.03L218.53 18.0757H219.105V34.0007H217.83Z" fill="#543925"/>
</svg>
