<svg width="17" height="18" viewBox="0 0 17 18" fill="none" xmlns="http://www.w3.org/2000/svg">
<path d="M15.9811 13.7161C15.7123 11.3897 13.8811 9.09288 11.5417 8.0713C12.275 7.3137 12.7347 6.296 12.7347 5.1927C12.7347 2.91991 10.7952 1 8.50006 1C6.20444 1 4.26536 2.91991 4.26536 5.1927C4.26536 6.296 4.72498 7.3137 5.45792 8.0713C3.11892 9.09288 1.28724 11.3897 1.01892 13.7161C0.860649 15.0834 1.69941 16.0464 3.38052 16.427C5.05893 16.8074 6.7815 17 8.50006 17C10.2181 17 11.9407 16.8074 13.6198 16.427C15.3006 16.0464 16.1393 15.0834 15.9811 13.7161ZM8.50006 1.66676C10.4303 1.66676 12.0612 3.28133 12.0612 5.1927C12.0612 7.10368 10.4303 8.71806 8.50006 8.71806C6.56941 8.71806 4.93874 7.10368 4.93874 5.1927C4.93874 3.28133 6.56941 1.66676 8.50006 1.66676ZM13.4693 15.7775C10.2104 16.5157 6.78925 16.5157 3.53075 15.7775C2.19065 15.4734 1.57075 14.8052 1.68755 13.7916C1.93783 11.6287 3.78956 9.41199 6.02626 8.56394C6.72759 9.0756 7.58419 9.38462 8.50006 9.38462C9.41548 9.38462 10.272 9.0756 10.9737 8.56394C13.2097 9.41199 15.0618 11.6291 15.3124 13.7916C15.4296 14.8052 14.8094 15.4734 13.4693 15.7775Z" fill="#543925" stroke="#543925" stroke-width="0.5"/>
</svg>
