<svg width="16" height="20" viewBox="0 0 16 20" fill="none" xmlns="http://www.w3.org/2000/svg">
<path d="M10.2309 11.5166C11.1017 11.5166 11.9724 11.5149 12.8432 11.5174C13.2079 11.5184 13.4282 11.6655 13.5246 11.9589C13.6403 12.3104 13.4231 12.6845 13.0588 12.7524C12.9662 12.7697 12.8699 12.7727 12.7752 12.7728C11.0813 12.7739 9.38723 12.7739 7.69324 12.7728C7.59859 12.7727 7.50243 12.7695 7.40966 12.7529C7.13658 12.7038 6.92966 12.4693 6.90812 12.1949C6.88581 11.9113 7.06568 11.6449 7.33774 11.555C7.46059 11.5145 7.58695 11.5156 7.71364 11.5156C8.55274 11.5158 9.39183 11.5157 10.2309 11.5157V11.5166Z" fill="#543925" stroke="#543925" stroke-width="0.3"/>
<path d="M10.2319 4.51429C11.1105 4.51433 11.9892 4.51295 12.8678 4.51504C13.1924 4.51581 13.4113 4.65287 13.5113 4.90616C13.6659 5.29779 13.4067 5.72214 12.9864 5.75419C12.8132 5.76737 12.6384 5.76028 12.4642 5.76033C10.889 5.76066 9.31383 5.76057 7.7386 5.76028C7.65157 5.76028 7.56406 5.76266 7.47755 5.75524C7.15121 5.72723 6.90634 5.46058 6.90625 5.13753C6.90616 4.81485 7.15175 4.54244 7.47751 4.5207C7.67459 4.50758 7.87309 4.51457 8.07098 4.51443C8.79128 4.51395 9.51163 4.51424 10.2319 4.51429Z" fill="#543925" stroke="#543925" stroke-width="0.3"/>
<path d="M10.2305 8.01867C11.0854 8.01872 11.9403 8.01838 12.7952 8.01906C12.9216 8.01915 13.0488 8.01616 13.1693 8.0659C13.4089 8.16467 13.5682 8.41078 13.557 8.6654C13.5456 8.92634 13.3745 9.14848 13.1249 9.23266C13.0175 9.26886 12.9077 9.27189 12.7967 9.27185C11.079 9.27142 9.36134 9.27081 7.64367 9.27176C7.52354 9.2718 7.40594 9.26234 7.29403 9.21849C7.04156 9.11943 6.87677 8.84117 6.90811 8.57209C6.94001 8.2984 7.15651 8.07046 7.4292 8.03227C7.52273 8.01919 7.61862 8.01928 7.71339 8.01915C8.55244 8.01825 9.39149 8.01863 10.2305 8.01867Z" fill="#543925" stroke="#543925" stroke-width="0.3"/>
<path d="M10.2338 16.2736C9.35516 16.2735 8.47654 16.2715 7.59792 16.2748C7.35067 16.2758 7.14446 16.2003 7.00723 15.989C6.73976 15.5773 7.0223 15.0455 7.52346 15.0319C8.01386 15.0186 8.50489 15.0272 8.99563 15.0271C10.2542 15.0268 11.5128 15.0269 12.7713 15.0272C12.8426 15.0272 12.9142 15.0252 12.9849 15.0317C13.3124 15.062 13.5572 15.3272 13.5582 15.6493C13.5591 15.9817 13.3058 16.2587 12.9645 16.267C12.4661 16.2792 11.9672 16.2728 11.4686 16.2735C11.057 16.2742 10.6454 16.2736 10.2338 16.2736Z" fill="#543925" stroke="#543925" stroke-width="0.3"/>
<path d="M4.21558 8.71787C4.40315 8.4709 4.57997 8.23925 4.7555 8.00669C4.97978 7.70946 5.20358 7.41185 5.42653 7.11362C5.52212 6.98569 5.64111 6.89909 5.80732 6.9125C6.08144 6.93456 6.24665 7.22476 6.12857 7.47486C6.10184 7.53136 6.06004 7.58129 6.02199 7.63185C5.55037 8.25855 5.07817 8.88484 4.60612 9.51121C4.58705 9.53651 4.56888 9.56257 4.54843 9.58673C4.3457 9.82633 4.07558 9.83189 3.88264 9.58564C3.60908 9.23647 3.34386 8.88065 3.08192 8.52264C2.93306 8.31909 2.96079 8.08388 3.13418 7.9502C3.31961 7.80724 3.54621 7.84628 3.71471 8.05943C3.8813 8.27007 4.04029 8.48673 4.21558 8.71787Z" fill="#543925" stroke="#543925" stroke-width="0.3"/>
<path d="M4.21501 5.21346C4.4693 4.87784 4.70818 4.5633 4.94625 4.24819C5.10851 4.03342 5.26659 3.81552 5.43214 3.60341C5.59441 3.39549 5.83171 3.35212 6.01295 3.48899C6.19586 3.62705 6.21912 3.85969 6.05657 4.07784C5.55992 4.74431 5.06172 5.40958 4.55685 6.06982C4.35616 6.33224 4.0828 6.33428 3.87954 6.07614C3.60533 5.72798 3.34096 5.37192 3.07963 5.01391C2.93111 4.81036 2.96088 4.57923 3.13679 4.44384C3.31071 4.30997 3.5475 4.34502 3.70206 4.53895C3.8735 4.75415 4.03562 4.97672 4.21501 5.21346Z" fill="#543925" stroke="#543925" stroke-width="0.3"/>
<path d="M4.21558 15.5842C4.57896 15.1025 4.92171 14.6479 5.26474 14.1937C5.33626 14.0989 5.40256 13.9992 5.4826 13.9122C5.62731 13.755 5.86025 13.7379 6.01871 13.8631C6.17441 13.9862 6.21013 14.1908 6.10664 14.3756C6.08738 14.41 6.06375 14.4421 6.03997 14.4737C5.55427 15.1187 5.0699 15.7647 4.58158 16.4076C4.35469 16.7063 4.08523 16.7128 3.85942 16.4218C3.59249 16.0779 3.33454 15.7271 3.07416 15.3782C2.96378 15.2303 2.95089 15.0719 3.04701 14.913C3.13123 14.7736 3.29293 14.7115 3.45914 14.7436C3.57608 14.7662 3.65393 14.8416 3.72213 14.9322C3.87878 15.1403 4.03648 15.3477 4.21558 15.5842Z" fill="#543925" stroke="#543925" stroke-width="0.3"/>
<path d="M4.21589 12.1506C4.61242 11.6257 4.98888 11.1271 5.36591 10.6289C5.40886 10.5722 5.44971 10.5126 5.50016 10.4631C5.64536 10.321 5.86788 10.3085 6.01968 10.4284C6.16459 10.543 6.20772 10.7498 6.11969 10.9218C6.09824 10.9637 6.06895 11.0021 6.04042 11.0399C5.55472 11.6848 5.0682 12.3293 4.5826 12.9743C4.52976 13.0446 4.47484 13.1118 4.39546 13.153C4.22868 13.2395 4.03417 13.2064 3.90572 13.0425C3.61776 12.675 3.33593 12.3023 3.06239 11.924C2.92623 11.7358 2.97112 11.4996 3.14266 11.3747C3.31178 11.2516 3.54485 11.2829 3.69195 11.4643C3.86601 11.6788 4.02784 11.9031 4.21589 12.1506Z" fill="#543925" stroke="#543925" stroke-width="0.3"/>
<path d="M1.77387 1.85565C1.71771 1.85565 1.67205 1.9013 1.67205 1.95747V18.0425C1.67205 18.0986 1.71771 18.1444 1.77387 18.1444H14.6013C14.6574 18.1444 14.7031 18.0986 14.7031 18.0425V1.95747C14.7031 1.9013 14.6574 1.85565 14.6013 1.85565H1.77387Z" stroke="#543925" stroke-width="0.3"/>
</svg>
